<svg width="16" height="16" viewBox="0 0 16 16" fill="none" xmlns="http://www.w3.org/2000/svg">
<path fill-rule="evenodd" clip-rule="evenodd" d="M8.00065 13.3334C10.9462 13.3334 13.334 10.9456 13.334 8.00004C13.334 5.05452 10.9462 2.66671 8.00065 2.66671C5.05513 2.66671 2.66732 5.05452 2.66732 8.00004C2.66732 10.9456 5.05513 13.3334 8.00065 13.3334ZM8.00065 14.6667C11.6825 14.6667 14.6673 11.6819 14.6673 8.00004C14.6673 4.31814 11.6825 1.33337 8.00065 1.33337C4.31875 1.33337 1.33398 4.31814 1.33398 8.00004C1.33398 11.6819 4.31875 14.6667 8.00065 14.6667Z" fill="#777E91"/>
<path fill-rule="evenodd" clip-rule="evenodd" d="M9.1638 12.1178C9.65627 11.1329 9.99935 9.67888 9.99935 8.00004C9.99935 6.3212 9.65627 4.86722 9.1638 3.88228C8.63146 2.81759 8.14272 2.66671 7.99935 2.66671C7.85598 2.66671 7.36724 2.81759 6.8349 3.88228C6.34243 4.86722 5.99935 6.3212 5.99935 8.00004C5.99935 9.67888 6.34243 11.1329 6.8349 12.1178C7.36724 13.1825 7.85598 13.3334 7.99935 13.3334C8.14272 13.3334 8.63146 13.1825 9.1638 12.1178ZM7.99935 14.6667C9.8403 14.6667 11.3327 11.6819 11.3327 8.00004C11.3327 4.31814 9.8403 1.33337 7.99935 1.33337C6.1584 1.33337 4.66602 4.31814 4.66602 8.00004C4.66602 11.6819 6.1584 14.6667 7.99935 14.6667Z" fill="#777E91"/>
<path fill-rule="evenodd" clip-rule="evenodd" d="M14.6344 8.66671C14.6562 8.44744 14.6673 8.22504 14.6673 8.00004C14.6673 7.77504 14.6562 7.55264 14.6344 7.33337H1.3669C1.34513 7.55264 1.33398 7.77504 1.33398 8.00004C1.33398 8.22504 1.34513 8.44744 1.3669 8.66671H14.6344Z" fill="#777E91"/>
</svg>
