<svg width="105" height="36" viewBox="0 0 105 36" fill="none" xmlns="http://www.w3.org/2000/svg">
<g clip-path="url(#clip0_10259_341)">
<path d="M14.9027 1.19271C16.819 0.0863382 19.1799 0.0863377 21.0962 1.19271L31.0066 6.91444C32.9229 8.02081 34.1033 10.0655 34.1033 12.2782V23.7217C34.1033 25.9344 32.9229 27.9791 31.0066 29.0855L21.0962 34.8072C19.1799 35.9136 16.819 35.9136 14.9027 34.8072L4.99235 29.0855C3.07606 27.9791 1.89558 25.9344 1.89558 23.7217V12.2782C1.89558 10.0655 3.07606 8.02081 4.99235 6.91444L14.9027 1.19271Z" fill="url(#paint0_linear_10259_341)"/>
<mask id="mask0_10259_341" style="mask-type:alpha" maskUnits="userSpaceOnUse" x="1" y="0" width="34" height="36">
<path d="M14.9027 1.19271C16.819 0.0863382 19.1799 0.0863377 21.0962 1.19271L31.0066 6.91444C32.9229 8.02081 34.1033 10.0655 34.1033 12.2782V23.7217C34.1033 25.9344 32.9229 27.9791 31.0066 29.0855L21.0962 34.8072C19.1799 35.9136 16.819 35.9136 14.9027 34.8072L4.99235 29.0855C3.07606 27.9791 1.89558 25.9344 1.89558 23.7217V12.2782C1.89558 10.0655 3.07606 8.02081 4.99235 6.91444L14.9027 1.19271Z" fill="#83E1E1"/>
</mask>
<g mask="url(#mask0_10259_341)">
<path d="M7.06987 14.0314L-3.55766 20.6564L-12.7647 26.8436C-13.1071 27.0737 -13.3125 27.4592 -13.3125 27.8717V57.2177C-13.3125 57.9018 -12.7579 58.4564 -12.0738 58.4564H49.2036C49.8877 58.4564 50.4423 57.9018 50.4423 57.2177V31.0056C50.4423 30.5813 50.2251 30.1865 49.8667 29.9593L18.8472 10.3004C18.3574 9.98998 17.7178 10.0609 17.3079 10.4711L11.9644 15.8188C11.4805 16.303 10.6957 16.303 10.2119 15.8188L8.60139 14.2071C8.19394 13.7993 7.55906 13.7265 7.06987 14.0314Z" fill="url(#paint1_linear_10259_341)"/>
<path d="M7.45467 16.875L1.125 21.975H5.97115C6.44588 21.975 8.21291 24.575 9.03709 25.875L10.125 19.775L7.45467 16.875Z" fill="url(#paint2_linear_10259_341)"/>
<path d="M14.6468 19.125L18 13.5L31.5 21.375L28.408 22.7465L20.8125 22.5L13.5 29.25L16.875 21.375L14.6468 19.125Z" fill="url(#paint3_linear_10259_341)"/>
</g>
</g>
<path d="M52.9119 15.647H50.2929V27.5H46.4589V15.647H44.7579V12.542H46.4589V11.786C46.4589 9.95 46.9809 8.6 48.0249 7.736C49.0689 6.872 50.6439 6.467 52.7499 6.521V9.707C51.8319 9.689 51.1929 9.842 50.8329 10.166C50.4729 10.49 50.2929 11.075 50.2929 11.921V12.542H52.9119V15.647ZM59.1415 7.52V27.5H55.3615V7.52H59.1415ZM76.7812 19.697C76.7812 20.237 76.7452 20.723 76.6732 21.155H65.7382C65.8282 22.235 66.2062 23.081 66.8722 23.693C67.5382 24.305 68.3572 24.611 69.3292 24.611C70.7332 24.611 71.7322 24.008 72.3262 22.802H76.4032C75.9712 24.242 75.1432 25.43 73.9192 26.366C72.6952 27.284 71.1922 27.743 69.4102 27.743C67.9702 27.743 66.6742 27.428 65.5222 26.798C64.3882 26.15 63.4972 25.241 62.8492 24.071C62.2192 22.901 61.9042 21.551 61.9042 20.021C61.9042 18.473 62.2192 17.114 62.8492 15.944C63.4792 14.774 64.3612 13.874 65.4952 13.244C66.6292 12.614 67.9342 12.299 69.4102 12.299C70.8322 12.299 72.1012 12.605 73.2172 13.217C74.3512 13.829 75.2242 14.702 75.8362 15.836C76.4662 16.952 76.7812 18.239 76.7812 19.697ZM72.8662 18.617C72.8482 17.645 72.4972 16.871 71.8132 16.295C71.1292 15.701 70.2922 15.404 69.3022 15.404C68.3662 15.404 67.5742 15.692 66.9262 16.268C66.2962 16.826 65.9092 17.609 65.7652 18.617H72.8662ZM93.4452 19.697C93.4452 20.237 93.4092 20.723 93.3372 21.155H82.4022C82.4922 22.235 82.8702 23.081 83.5362 23.693C84.2022 24.305 85.0212 24.611 85.9932 24.611C87.3972 24.611 88.3962 24.008 88.9902 22.802H93.0672C92.6352 24.242 91.8072 25.43 90.5832 26.366C89.3592 27.284 87.8562 27.743 86.0742 27.743C84.6342 27.743 83.3382 27.428 82.1862 26.798C81.0522 26.15 80.1612 25.241 79.5132 24.071C78.8832 22.901 78.5682 21.551 78.5682 20.021C78.5682 18.473 78.8832 17.114 79.5132 15.944C80.1432 14.774 81.0252 13.874 82.1592 13.244C83.2932 12.614 84.5982 12.299 86.0742 12.299C87.4962 12.299 88.7652 12.605 89.8812 13.217C91.0152 13.829 91.8882 14.702 92.5002 15.836C93.1302 16.952 93.4452 18.239 93.4452 19.697ZM89.5302 18.617C89.5122 17.645 89.1612 16.871 88.4772 16.295C87.7932 15.701 86.9562 15.404 85.9662 15.404C85.0302 15.404 84.2382 15.692 83.5902 16.268C82.9602 16.826 82.5732 17.609 82.4292 18.617H89.5302ZM100.605 15.647V22.883C100.605 23.387 100.722 23.756 100.956 23.99C101.208 24.206 101.622 24.314 102.198 24.314H103.953V27.5H101.577C98.3913 27.5 96.7983 25.952 96.7983 22.856V15.647H95.0163V12.542H96.7983V8.843H100.605V12.542H103.953V15.647H100.605Z" fill="#23262F"/>
<defs>
<linearGradient id="paint0_linear_10259_341" x1="17.9995" y1="-0.595215" x2="17.9995" y2="36.5951" gradientUnits="userSpaceOnUse">
<stop stop-color="#22AFFF"/>
<stop offset="1" stop-color="#1D41FF"/>
</linearGradient>
<linearGradient id="paint1_linear_10259_341" x1="18.5649" y1="9.76929" x2="18.5649" y2="58.4564" gradientUnits="userSpaceOnUse">
<stop stop-color="#1B3573"/>
<stop offset="1" stop-color="#131E39"/>
</linearGradient>
<linearGradient id="paint2_linear_10259_341" x1="9.5625" y1="18" x2="-3.375" y2="37.125" gradientUnits="userSpaceOnUse">
<stop stop-color="#FCFCFD"/>
<stop offset="1" stop-color="white" stop-opacity="0"/>
</linearGradient>
<linearGradient id="paint3_linear_10259_341" x1="18.5625" y1="13.5" x2="30.375" y2="56.25" gradientUnits="userSpaceOnUse">
<stop stop-color="white"/>
<stop offset="1" stop-color="#192E5F"/>
</linearGradient>
<clipPath id="clip0_10259_341">
<rect width="36" height="36" fill="white"/>
</clipPath>
</defs>
</svg>
